<svg width="249" height="87" viewBox="0 0 249 87" fill="none" xmlns="http://www.w3.org/2000/svg">
<path fill-rule="evenodd" clip-rule="evenodd" d="M31.5279 13.6067L27.8934 7.14355H54.7664C54.7101 7.28864 54.6594 7.44618 54.6118 7.61757C54.35 8.58267 54.3379 9.4887 54.604 10.1578H32.9781L34.8664 13.5159L31.5279 13.6067Z" fill="white"/>
<path fill-rule="evenodd" clip-rule="evenodd" d="M73.4972 86.7419L58.8484 61.3403C59.6166 60.571 60.3597 59.8616 61.0349 59.2485L73.4972 80.8586L93.9027 45.4719L114.308 10.0852H100.838L101.606 9.10362C101.614 8.83127 101.918 8.09544 102.183 7.14355H119.398L73.4972 86.7419Z" fill="white"/>
<mask id="mask0" style="mask-type:alpha" maskUnits="userSpaceOnUse" x="41" y="0" width="66" height="81">
<path fill-rule="evenodd" clip-rule="evenodd" d="M41.1598 0H106.471V80.6189H41.1598V0Z" fill="white"/>
</mask>
<g mask="url(#mask0)">
<path fill-rule="evenodd" clip-rule="evenodd" d="M70.7802 39.9455C71.5486 39.9809 76.7081 41.2964 77.7563 41.8564C76.989 42.5536 75.1648 43.1037 73.8712 43.5222C72.4252 43.9917 70.9449 44.4149 69.3529 44.5617L70.7802 39.9455ZM61.9157 35.749V35.75C61.939 36.6493 61.9223 37.4623 61.7819 38.0378C61.269 40.1532 60.4564 41.2556 60.1567 43.9298C58.6365 57.4845 56.9662 48.8974 52.2034 58.9615C51.3077 60.8537 50.5383 62.2587 49.4394 63.9565C46.6722 68.2336 44.6346 68.8401 41.1598 71.8171C41.4683 75.302 44.5627 75.5142 46.0762 77.9919C46.9518 79.4247 47.1221 80.3205 48.8402 80.5689C50.3547 80.7888 52.1713 80.2685 52.9651 79.2998C51.6583 77.4551 51.1973 78.6015 50.0628 77.6053C49.1343 76.7889 48.9441 74.6295 48.9639 73.2883C49.0271 68.8942 59.9159 58.3108 62.2076 57.0792C63.333 58.5969 62.7658 59.1559 65.2457 59.1947C64.7006 54.3938 64.8952 51.9052 68.3999 49.8815C73.796 46.7632 87.9009 48.6422 91.6798 45.4332C94.7135 42.8561 89.0197 39.4252 87.7572 37.4534L87.7516 37.4479L87.7473 37.4423L87.7429 37.438L87.7383 37.4324L87.7329 37.4269L87.7296 37.4214L87.7251 37.417L87.7195 37.4104L87.6689 37.3518L87.6644 37.3463L87.65 37.3308L87.6456 37.3253L87.6411 37.3199L87.6368 37.3154L87.6323 37.3099L87.6267 37.3043L87.6224 37.2988L87.6189 37.2944L87.618 37.2932L87.6135 37.2878L87.608 37.2833L87.6036 37.2778L87.5991 37.2722L87.5946 37.2668L87.5903 37.2612L87.5804 37.2513L87.5759 37.2459L87.5205 37.1805L87.5162 37.1762L87.5118 37.1706L87.5073 37.1651L87.503 37.1597L87.4974 37.1552L87.4931 37.1497L87.4886 37.1441L87.4841 37.1386L87.4809 37.1354L87.4797 37.133L87.4752 37.1275L87.4709 37.1231L87.4653 37.1176L87.462 37.1121C85.0419 34.2909 83.0419 31.2599 82.027 27.7305L82.0194 27.7041L82.0117 27.6764L82.0039 27.6488L81.9961 27.6213L81.9663 27.5119L81.9585 27.4843L81.9508 27.4578L81.943 27.4301L81.9142 27.3196L81.9076 27.292L81.9 27.2643L81.8934 27.2368L81.8656 27.1319L81.8358 27.0115L81.8193 26.9429C81.8071 26.8922 81.7948 26.8414 81.7827 26.7917L81.774 26.7475C81.7606 26.6922 81.7485 26.636 81.7363 26.5784L81.7329 26.5686V26.5663L81.7308 26.5575C81.7174 26.4957 81.703 26.4337 81.6911 26.3708L81.6887 26.3609L81.6855 26.3432C81.6732 26.2823 81.6611 26.2216 81.6489 26.1622L81.6468 26.1532L81.6456 26.1443V26.1433C81.6335 26.077 81.6201 26.0107 81.608 25.9444L81.5495 25.9222C85.0143 24.3272 86.33 21.9357 88.0027 21.0454C88.5776 21.7037 88.1022 21.8507 90.5974 24.705C91.6047 25.8583 92.7489 27.3043 93.5217 28.2995C95.4365 28.3349 95.2884 29.4438 98.7034 25.4716C101.098 22.6869 102.482 19.3842 104.05 17.7183C104.687 17.0412 105.723 16.0173 106.177 15.2496C106.918 13.9968 106.113 12.8404 105.379 12.0881C104.024 10.7018 104.126 11.2563 102.205 11.4044C100.639 14.2797 101.868 15.5533 100.206 17.7637C99.4232 18.8053 97.17 21.2895 95.1634 21.7469C94.4459 20.8721 94.6526 20.5307 94.2259 19.4769C93.4775 17.6234 91.7836 17.8443 91.1834 13.3219C92.1872 12.8028 92.4681 12.2991 93.7638 12.0848C96.0711 13.8113 96.3895 13.8323 98.667 10.9448L100.002 9.24033C100.031 8.3478 103.255 2.42157 97.8091 0.371436C96.0633 -0.285818 94.1374 -0.0803698 92.6295 1.06406C90.7799 2.46908 91.4277 3.79902 90.6316 5.79071C89.7594 7.97452 88.2736 7.22001 86.2658 6.58149C81.7948 5.15878 84.3057 5.26263 81.8866 4.13379C77.377 2.02941 75.4877 0.452057 71.6336 1.44393C67.9456 2.394 64.3403 4.97207 60.9197 5.41069C58.3105 5.74531 56.7019 5.34445 56.0307 7.74584C55.3962 10.0203 56.2277 11.9644 58.924 11.1105C60.9827 10.4598 60.0351 9.1609 62.9494 8.11583C65.0578 7.36027 74.2472 5.84032 75.6824 6.565C76.1753 6.81346 76.6485 7.81328 77.2787 8.39426C78.0062 9.0647 78.5611 9.13768 79.4577 9.71761C79.1084 10.7051 77.7032 11.7235 76.6673 12.709C75.1561 14.1449 71.7894 19.0582 69.9111 21.4707L69.9123 21.4697L70.0129 21.5082C69.6513 21.9369 69.2832 22.3511 68.9129 22.7532L68.9095 22.7575L68.7648 22.9133L68.7438 22.9366L68.7271 22.9543L68.7171 22.9652L68.5855 23.1056L68.5425 23.1519L68.5048 23.1918L68.3943 23.3099L68.3622 23.343L68.3568 23.3496L68.3204 23.3884L68.2827 23.4281L68.2086 23.5065L68.1711 23.5451L68.1345 23.5838L68.0969 23.6225L68.0228 23.701L67.9864 23.7395L67.982 23.744L67.9499 23.7783L67.9124 23.817L67.8019 23.9329L67.7906 23.9439L67.7642 23.9716L67.7276 24.0103L67.6912 24.0489L67.6535 24.0876L67.6006 24.1417L67.5796 24.1639L67.543 24.2013L67.5066 24.24L67.4701 24.2787L67.396 24.3548L67.3594 24.3936L67.323 24.4311L67.1772 24.5835L67.1396 24.6223L67.103 24.6597L67.0356 24.7305L67.0301 24.736L66.9947 24.7735L66.9582 24.8111L66.9216 24.8497L66.8852 24.8874L66.8135 24.9635L66.7769 25.0009L66.7415 25.0386L66.7051 25.0762L66.6332 25.1513L66.5977 25.1889L66.5612 25.2275C64.9725 26.9044 63.5387 28.5535 62.683 30.5386L62.6818 30.543C62.5194 30.9197 62.379 31.3074 62.2617 31.7105L62.2452 31.768C61.9079 32.9499 61.7741 34.2556 61.9157 35.749Z" fill="white"/>
</g>
<path fill-rule="evenodd" clip-rule="evenodd" d="M68.0328 14.627L65.8905 17.3483L14.2869 16.0632L68.0328 14.627Z" fill="white"/>
<path fill-rule="evenodd" clip-rule="evenodd" d="M60.8894 22.791L58.6598 25.5123L4.08197 24.1516L60.8894 22.791Z" fill="white"/>
<path fill-rule="evenodd" clip-rule="evenodd" d="M56.127 31.6353L54.6112 34.3566L0 32.9952L56.127 31.6353Z" fill="white"/>
<path fill-rule="evenodd" clip-rule="evenodd" d="M55.1065 41.5L54.4822 44.2213L25.5123 42.8607L55.1065 41.5Z" fill="white"/>
<path fill-rule="evenodd" clip-rule="evenodd" d="M54.7664 50.3442L52.8597 53.0655L19.7295 51.7054L54.7664 50.3442Z" fill="white"/>
<mask id="mask1" style="mask-type:alpha" maskUnits="userSpaceOnUse" x="111" y="21" width="138" height="32">
<path fill-rule="evenodd" clip-rule="evenodd" d="M111.234 21.0901H249V52.045H111.234V21.0901Z" fill="white"/>
</mask>
<g mask="url(#mask1)">
<path fill-rule="evenodd" clip-rule="evenodd" d="M220.896 52.0451H234.718C237.033 47.9906 239.306 43.9117 241.559 39.8219C243.848 35.6691 246.094 31.4921 248.354 27.3238C248.743 26.607 248.97 25.8382 248.997 25.0198C249.021 24.3252 248.913 23.6448 248.604 23.0164C248.325 22.4487 247.914 21.9815 247.393 21.6235C246.853 21.2514 246.257 21.0901 245.602 21.0901H213.898C211.049 26.3374 208.202 31.5881 205.333 36.8266C202.55 41.9083 199.747 46.9777 196.938 52.0451H210.704C212.857 48.2082 214.995 44.3635 217.116 40.5078C219.28 36.5747 221.429 32.634 223.58 28.6932L223.731 28.4172H224.044H231.895C232.56 28.4172 233.046 28.8291 232.921 29.5272C232.873 29.7945 232.844 30.0584 232.81 30.3269L232.798 30.4251L232.75 30.5123C230.741 34.2421 228.718 37.9653 226.673 41.6764C224.764 45.1409 222.835 48.5958 220.896 52.0451ZM185.49 21.0901C183.598 24.5493 181.694 28.004 179.802 31.4644C177.766 35.1853 175.718 38.8997 173.684 42.6196L173.626 42.7222L173.62 42.8404C173.603 43.0978 173.571 43.354 173.526 43.608C173.401 44.3094 173.886 44.7136 174.553 44.7136H182.416H182.73L182.88 44.4387C185.045 40.5045 187.207 36.5704 189.36 32.6296C191.462 28.7816 193.572 24.9381 195.673 21.0901H209.458C206.692 26.1641 203.947 31.2491 201.171 36.3163C198.295 41.568 195.386 46.8021 192.493 52.0451H160.787C160.12 52.0451 159.516 51.8904 158.967 51.5105C158.441 51.1494 158.051 50.6877 157.771 50.1155C157.469 49.4993 157.387 48.8046 157.392 48.1263C157.399 47.3068 157.686 46.5204 158.077 45.8092C160.365 41.6476 162.638 37.477 164.93 33.3166C167.175 29.2433 169.416 25.1689 171.649 21.0901H185.49ZM134.32 34.971C135.464 32.8726 136.63 30.785 137.785 28.6921L137.935 28.4172H138.249H145.665C146.122 28.4172 146.533 28.5817 146.779 28.9804C146.99 29.3205 147.051 29.7147 147.015 30.1081C146.981 30.4946 146.886 30.8724 146.756 31.2369C146.636 31.5737 146.519 31.9183 146.344 32.2309C146.125 32.6228 145.84 32.9952 145.553 33.3386C145.219 33.7373 144.861 34.1084 144.471 34.452C144.098 34.78 143.707 35.0858 143.278 35.3378C142.853 35.5874 142.382 35.7552 141.885 35.7552H134.785H133.893L134.32 34.971ZM128.172 21.0901C125.287 26.3452 122.366 31.5814 119.464 36.8288C116.672 41.8739 113.92 46.9423 111.234 52.045H125.016C126.485 49.2784 127.969 46.5193 129.456 43.7605C129.583 43.524 129.875 43.4192 130.116 43.3396C130.347 43.2623 130.579 43.1839 130.813 43.1087L130.893 43.0832H130.976H131.09C131.789 43.0832 132.441 43.3032 132.922 43.8212C133.355 44.2873 133.642 44.8351 133.749 45.4657C134.124 47.657 134.48 49.8527 134.857 52.045H152.356C152.026 50.268 151.716 48.4853 151.404 46.7048C151.059 44.7169 150.726 42.7254 150.381 40.7387L150.357 40.596L150.406 40.4624C150.475 40.2769 150.576 40.0936 150.676 39.9224C150.892 39.5524 151.176 39.2409 151.534 39.0045L151.667 38.9161H151.826C152.687 38.9161 153.511 38.5529 154.222 38.0922C155.184 37.4671 156.052 36.6918 156.837 35.8579C157.707 34.9356 158.513 33.9593 159.241 32.9212C159.904 31.9813 160.531 31.0103 161.088 30.0032C161.663 28.9648 162.165 27.888 162.567 26.7704C162.901 25.8437 163.145 24.8277 163.099 23.8368C163.064 23.0604 162.79 22.39 162.226 21.8544C161.534 21.1983 160.2 21.0901 159.3 21.0901H128.172Z" fill="white"/>
</g>
<path fill-rule="evenodd" clip-rule="evenodd" d="M225.406 67.0686C226.13 67.0312 226.84 66.9949 227.564 66.9574C227.406 67.6296 227.401 68.0873 227.539 68.3194C227.769 68.7055 228.316 68.8937 229.198 68.8937C229.921 68.8937 230.497 68.7562 230.884 68.4998C231.288 68.2314 231.535 67.9244 231.634 67.5516C231.719 67.2335 231.666 66.9663 231.462 66.7375C231.323 66.5802 230.883 66.3094 230.147 65.9455C229.408 65.5813 228.895 65.2754 228.565 65.0312C228.236 64.7869 228.027 64.4724 227.921 64.0774C227.816 63.6891 227.837 63.2291 227.999 62.7089C228.285 61.7924 228.855 61.0345 229.738 60.4316C230.62 59.8299 231.7 59.5286 232.964 59.5286C234.229 59.5286 235.102 59.8233 235.585 60.424C236.063 61.018 236.191 61.8167 235.967 62.808C235.228 62.8399 234.491 62.8717 233.781 62.9024C233.899 62.3855 233.825 61.9861 233.596 61.7133C233.363 61.4339 232.938 61.2986 232.306 61.2986C231.687 61.2986 231.215 61.4097 230.884 61.6242C230.544 61.8442 230.326 62.1149 230.225 62.4459C230.129 62.7572 230.168 63.0157 230.343 63.2182C230.525 63.4273 230.974 63.7089 231.7 64.0676C232.792 64.6089 233.465 65.0433 233.714 65.3788C234.084 65.8728 234.138 66.5032 233.925 67.282C233.664 68.2369 233.052 69.052 232.095 69.7353C231.156 70.4074 230.001 70.754 228.645 70.754C227.71 70.754 226.933 70.5988 226.354 70.2854C225.773 69.9728 225.399 69.5405 225.273 68.9849C225.148 68.4305 225.195 67.7892 225.406 67.0686ZM216.608 66.6705C217.32 66.7825 218.031 66.897 218.756 67.0103C217.992 68.2226 217.056 69.1522 216.003 69.7902C214.937 70.4359 213.804 70.754 212.644 70.754C211.301 70.754 210.386 70.3601 209.866 69.5571C209.61 69.161 209.465 68.667 209.445 68.0873C209.425 67.5075 209.516 66.8355 209.734 66.0774C209.913 65.4591 210.142 64.8706 210.433 64.3074C210.722 63.7442 211.062 63.2017 211.472 62.6925C212.3 61.667 213.251 60.8849 214.33 60.3425C215.41 59.8014 216.49 59.5286 217.543 59.5286C218.702 59.5286 219.528 59.8463 220.032 60.4724C220.542 61.105 220.705 61.9575 220.48 63.0445C219.742 63.1138 219.005 63.182 218.281 63.2512C218.359 62.6175 218.268 62.1622 218.031 61.8761C217.793 61.5912 217.385 61.4503 216.819 61.4503C216.201 61.4503 215.571 61.6418 214.936 62.0125C214.281 62.3943 213.668 62.9729 213.105 63.7749C212.548 64.5692 212.167 65.3679 211.933 66.1642C211.68 67.0334 211.702 67.7056 211.986 68.1818C212.268 68.6539 212.724 68.8937 213.343 68.8937C213.909 68.8937 214.488 68.7067 215.068 68.3315C215.646 67.9563 216.16 67.4031 216.608 66.6705ZM197.843 70.5571C198.738 68.7517 199.629 66.9443 200.529 65.1422C201.432 63.3348 202.386 61.5318 203.388 59.7254H205.612C204.599 61.5318 203.658 63.3348 202.755 65.1422C201.854 66.9443 200.964 68.7517 200.081 70.5571H197.843ZM187.9 70.5571H185.675C186.399 69.0554 187.15 67.5515 187.9 66.0511C188.65 64.5482 189.429 63.0445 190.217 61.5406H187.018C187.334 60.9354 187.65 60.3306 187.993 59.7254H196.553C196.197 60.3306 195.881 60.9354 195.577 61.5406H192.443C191.653 63.0445 190.88 64.5439 190.126 66.0511C189.378 67.5471 188.638 69.0554 187.9 70.5571ZM167.555 70.5571C168.437 68.7517 169.346 66.9476 170.254 65.1422C171.162 63.337 172.125 61.5318 173.111 59.7254H181.145C180.802 60.3306 180.473 60.9354 180.156 61.5406H174.351C173.915 62.359 173.481 63.1752 173.046 63.9916H178.695C178.393 64.5978 178.076 65.2028 177.774 65.8078H172.111C171.861 66.2975 171.592 66.7848 171.348 67.2765C171.105 67.7617 170.86 68.2533 170.623 68.7417H176.931C176.641 69.3469 176.338 69.9519 176.049 70.5571H167.555ZM152.858 70.5571C153.74 68.7517 154.66 66.9521 155.571 65.1422C156.477 63.3425 157.427 61.5318 158.402 59.7254H160.641C159.824 61.2293 159.013 62.7363 158.257 64.2347C157.499 65.7396 156.73 67.2402 155.98 68.7417H161.524C161.234 69.3469 160.931 69.9519 160.628 70.5571H152.858ZM145.22 65.7177H141.02C140.598 66.524 140.19 67.3326 139.795 68.1379C139.4 68.9443 138.991 69.7506 138.596 70.5571H136.37C137.253 68.7517 138.172 66.9521 139.096 65.1422C140.017 63.3425 140.94 61.5318 141.903 59.7254H144.14C143.745 60.4217 143.358 61.1159 143.008 61.8134C142.661 62.5065 142.297 63.2061 141.941 63.9002H146.156C146.511 63.2061 146.88 62.5087 147.235 61.8134C147.59 61.1193 147.972 60.4217 148.355 59.7254H150.593C149.618 61.5318 148.676 63.3403 147.761 65.1422C146.845 66.9498 145.918 68.7517 145.037 70.5571H142.811C143.205 69.7506 143.608 68.942 143.996 68.1379C144.385 67.3293 144.799 66.524 145.22 65.7177ZM126.309 70.5571H124.071C124.808 69.0554 125.572 67.5515 126.336 66.0511C127.099 64.5482 127.891 63.0445 128.666 61.5406H125.48C125.783 60.9354 126.086 60.3306 126.415 59.7254H134.974C134.645 60.3306 134.33 60.9354 134.027 61.5406H130.892C130.115 63.0445 129.334 64.546 128.562 66.0511C127.793 67.5493 127.034 69.0554 126.309 70.5571ZM114.339 66.3524C114.471 65.6264 114.537 64.8981 114.669 64.1732C114.8 63.4448 114.905 62.721 115.024 61.9949C114.392 62.721 113.796 63.4448 113.153 64.1732C112.518 64.897 111.93 65.6264 111.284 66.3524H114.339ZM114.076 68.1675H109.757C109.072 68.9641 108.426 69.7617 107.755 70.5571H105.451C106.965 68.7517 108.54 66.9531 110.112 65.1422C111.674 63.3437 113.273 61.5318 114.853 59.7254H117.381C117.104 61.5318 116.841 63.3392 116.578 65.1422C116.314 66.9486 116.065 68.7517 115.854 70.5571H113.734C113.852 69.7617 113.945 68.9641 114.076 68.1675Z" fill="white"/>
</svg>
