<svg width="326" height="114" viewBox="0 0 326 114" fill="none" xmlns="http://www.w3.org/2000/svg">
<path fill-rule="evenodd" clip-rule="evenodd" d="M41.2776 17.8143L36.5192 9.35254H71.7022C71.6285 9.54248 71.5622 9.74875 71.4998 9.97314C71.1571 11.2367 71.1412 12.4229 71.4896 13.2989H43.1761L45.6484 17.6954L41.2776 17.8143Z" fill="black"/>
<path fill-rule="evenodd" clip-rule="evenodd" d="M96.2251 113.566L77.0464 80.3089C78.0522 79.3017 79.025 78.3729 79.9091 77.5703L96.2251 105.863L122.941 59.5334L149.657 13.2039H132.021L133.026 11.9187C133.037 11.5622 133.435 10.5988 133.782 9.35254H156.32L96.2251 113.566Z" fill="black"/>
<mask id="mask0" style="mask-type:alpha" maskUnits="userSpaceOnUse" x="53" y="0" width="87" height="106">
<path fill-rule="evenodd" clip-rule="evenodd" d="M53.8879 0H139.396V105.549H53.8879V0Z" fill="white"/>
</mask>
<g mask="url(#mask0)">
<path fill-rule="evenodd" clip-rule="evenodd" d="M92.6682 52.298C93.6741 52.3443 100.429 54.0667 101.802 54.7999C100.797 55.7125 98.4086 56.4328 96.715 56.9807C94.8219 57.5954 92.8838 58.1495 90.7994 58.3417L92.6682 52.298ZM81.0624 46.8038V46.8051C81.0928 47.9825 81.071 49.0468 80.8872 49.8004C80.2156 52.5699 79.1518 54.0133 78.7594 57.5143C76.7691 75.2608 74.5822 64.0181 68.3466 77.1944C67.1739 79.6718 66.1666 81.5113 64.7279 83.7341C61.105 89.3339 58.4372 90.1279 53.8879 94.0254C54.2919 98.5881 58.3432 98.8659 60.3247 102.11C61.471 103.986 61.6941 105.158 63.9434 105.484C65.9263 105.771 68.3046 105.09 69.3439 103.822C67.633 101.407 67.0294 102.908 65.5441 101.604C64.3285 100.535 64.0795 97.7076 64.1054 95.9517C64.1881 90.1987 78.4441 76.3426 81.4445 74.7301C82.918 76.7171 82.1753 77.4489 85.4222 77.4997C84.7084 71.2143 84.9633 67.9561 89.5516 65.3065C96.6165 61.224 115.083 63.684 120.031 59.4827C124.002 56.1086 116.548 51.6168 114.895 49.0353L114.888 49.028L114.882 49.0208L114.876 49.0151L114.87 49.0078L114.863 49.0005L114.859 48.9933L114.853 48.9876L114.846 48.979L114.779 48.9023L114.773 48.895L114.755 48.8748L114.749 48.8675L114.743 48.8605L114.737 48.8546L114.731 48.8473L114.724 48.8401L114.718 48.8328L114.714 48.8271L114.713 48.8255L114.707 48.8185L114.7 48.8126L114.694 48.8053L114.688 48.7981L114.682 48.791L114.676 48.7836L114.663 48.7706L114.658 48.7635L114.585 48.678L114.579 48.6723L114.574 48.6651L114.568 48.6578L114.562 48.6507L114.555 48.6448L114.549 48.6376L114.543 48.6303L114.537 48.6231L114.533 48.619L114.532 48.6158L114.526 48.6086L114.52 48.6029L114.513 48.5956L114.509 48.5883C111.34 44.8948 108.722 40.9264 107.393 36.3057L107.383 36.2712L107.373 36.2349L107.363 36.1988L107.352 36.1627L107.313 36.0194L107.303 35.9833L107.293 35.9486L107.283 35.9123L107.245 35.7677L107.237 35.7316L107.226 35.6953L107.218 35.6592L107.182 35.5219L107.142 35.3644L107.121 35.2745C107.105 35.2082 107.089 35.1417 107.073 35.0765L107.062 35.0187C107.044 34.9463 107.028 34.8727 107.012 34.7974L107.008 34.7844V34.7815L107.005 34.7699C106.988 34.6891 106.969 34.6078 106.953 34.5254L106.95 34.5125L106.946 34.4893C106.93 34.4097 106.914 34.3302 106.898 34.2523L106.895 34.2406L106.893 34.229V34.2276C106.878 34.1409 106.86 34.054 106.844 33.9673L106.768 33.9382C111.304 31.85 113.026 28.7189 115.216 27.5533C115.969 28.4152 115.347 28.6077 118.613 32.3446C119.932 33.8545 121.43 35.7477 122.442 37.0506C124.949 37.0969 124.755 38.5488 129.226 33.3483C132.362 29.7024 134.174 25.3783 136.226 23.1973C137.06 22.3109 138.416 20.9703 139.011 19.9652C139.981 18.325 138.927 16.811 137.966 15.8261C136.193 14.0111 136.326 14.737 133.81 14.9309C131.761 18.6954 133.369 20.3629 131.193 23.2567C130.169 24.6204 127.219 27.8729 124.591 28.4717C123.652 27.3263 123.923 26.8794 123.364 25.4998C122.384 23.0731 120.166 23.3623 119.381 17.4414C120.695 16.7617 121.063 16.1023 122.759 15.8218C125.78 18.0821 126.197 18.1096 129.178 14.3292L130.927 12.0977C130.965 10.9291 135.185 3.17029 128.055 0.486176C125.77 -0.374326 123.248 -0.105345 121.274 1.39298C118.852 3.23248 119.701 4.9737 118.658 7.58129C117.516 10.4404 115.571 9.45258 112.942 8.6166C107.089 6.75395 110.376 6.88991 107.209 5.41199C101.305 2.65685 98.8313 0.591728 93.7854 1.89033C88.9569 3.13419 84.2367 6.50949 79.7583 7.08375C76.3422 7.52185 74.2363 6.99703 73.3575 10.141C72.5267 13.1188 73.6154 15.664 77.1455 14.5461C79.8408 13.6943 78.6002 11.9937 82.4157 10.6254C85.1761 9.63622 97.2072 7.64623 99.0861 8.59502C99.7316 8.92031 100.351 10.2293 101.176 10.9899C102.129 11.8677 102.855 11.9633 104.029 12.7225C103.572 14.0154 101.732 15.3488 100.376 16.6389C98.3971 18.5189 93.9894 24.9516 91.5302 28.1101L91.5317 28.1088L91.6635 28.1592C91.1901 28.7205 90.7082 29.2628 90.2234 29.7891L90.2189 29.7948L90.0294 29.9989L90.0019 30.0293L89.9801 30.0524L89.9669 30.0668L89.7947 30.2506L89.7384 30.3112L89.6891 30.3634L89.5444 30.518L89.5023 30.5614L89.4953 30.57L89.4476 30.6208L89.3983 30.6728L89.3013 30.7754L89.2522 30.826L89.2043 30.8766L89.155 30.9273L89.058 31.0301L89.0103 31.0805L89.0046 31.0864L88.9626 31.1313L88.9135 31.1819L88.7687 31.3338L88.754 31.3481L88.7195 31.3844L88.6715 31.435L88.6238 31.4856L88.5745 31.5362L88.5052 31.6071L88.4777 31.6361L88.4298 31.6852L88.3821 31.7358L88.3344 31.7864L88.2374 31.8861L88.1895 31.9369L88.1418 31.9859L87.9509 32.1854L87.9016 32.2363L87.8537 32.2853L87.7655 32.3779L87.7583 32.3852L87.7119 32.4342L87.6642 32.4835L87.6163 32.5341L87.5686 32.5833L87.4747 32.683L87.4268 32.732L87.3805 32.7813L87.3328 32.8305L87.2387 32.9288L87.1922 32.9781L87.1444 33.0287C85.0644 35.2241 83.1872 37.3832 82.0669 39.9822L82.0654 39.9878C81.8527 40.4811 81.6689 40.9886 81.5154 41.5164L81.4938 41.5917C81.0521 43.1391 80.877 44.8485 81.0624 46.8038Z" fill="black"/>
</g>
<path fill-rule="evenodd" clip-rule="evenodd" d="M89.0709 19.1503L86.2662 22.7131L18.7048 21.0307L89.0709 19.1503Z" fill="black"/>
<path fill-rule="evenodd" clip-rule="evenodd" d="M79.7186 29.8389L76.7995 33.4017L5.34424 31.6202L79.7186 29.8389Z" fill="black"/>
<path fill-rule="evenodd" clip-rule="evenodd" d="M73.4836 41.418L71.499 44.9808L0 43.1985L73.4836 41.418Z" fill="black"/>
<path fill-rule="evenodd" clip-rule="evenodd" d="M72.1475 54.3333L71.3301 57.8961L33.4016 56.1148L72.1475 54.3333Z" fill="black"/>
<path fill-rule="evenodd" clip-rule="evenodd" d="M71.7023 65.9126L69.206 69.4754L25.8307 67.6947L71.7023 65.9126Z" fill="black"/>
<mask id="mask1" style="mask-type:alpha" maskUnits="userSpaceOnUse" x="145" y="27" width="181" height="42">
<path fill-rule="evenodd" clip-rule="evenodd" d="M145.631 27.6121H326V68.1394H145.631V27.6121Z" fill="white"/>
</mask>
<g mask="url(#mask1)">
<path fill-rule="evenodd" clip-rule="evenodd" d="M289.206 68.1396H307.302C310.333 62.8313 313.308 57.4911 316.258 52.1365C319.255 46.6996 322.196 41.2309 325.154 35.7735C325.663 34.8351 325.961 33.8286 325.996 32.7571C326.028 31.8477 325.886 30.9569 325.481 30.1342C325.117 29.3909 324.578 28.7792 323.897 28.3106C323.19 27.8233 322.409 27.6123 321.551 27.6123H280.044C276.313 34.4822 272.586 41.3566 268.829 48.215C265.186 54.8682 261.516 61.5052 257.839 68.1396H275.862C278.681 63.1162 281.479 58.0825 284.256 53.0346C287.09 47.8852 289.903 42.7259 292.719 37.5665L292.917 37.2052H293.327H303.605C304.477 37.2052 305.113 37.7444 304.95 38.6584C304.886 39.0083 304.849 39.3538 304.804 39.7053L304.788 39.834L304.726 39.9482C302.095 44.8313 299.446 49.7058 296.769 54.5645C294.27 59.1004 291.744 63.6236 289.206 68.1396ZM242.851 27.6123C240.373 32.1411 237.881 36.6641 235.403 41.1946C232.737 46.0662 230.057 50.9291 227.393 55.7994L227.318 55.9337L227.309 56.0885C227.287 56.4255 227.246 56.761 227.186 57.0935C227.023 58.0117 227.658 58.541 228.531 58.541H238.826H239.237L239.433 58.181C242.268 53.0303 245.099 47.8795 247.917 42.7202C250.67 37.6822 253.432 32.6502 256.183 27.6123H274.23C270.608 34.2552 267.015 40.9127 263.381 47.5468C259.615 54.4227 255.807 61.2753 252.018 68.1396H210.509C209.635 68.1396 208.845 67.9371 208.125 67.4397C207.437 66.9669 206.927 66.3625 206.559 65.6133C206.165 64.8065 206.056 63.8971 206.064 63.009C206.072 61.936 206.448 60.9065 206.96 59.9753C209.956 54.5268 212.932 49.0665 215.933 43.6196C218.871 38.2866 221.806 32.9523 224.729 27.6123H242.851ZM175.857 45.7856C177.354 43.0383 178.881 40.3051 180.393 37.5651L180.59 37.2051H181H190.71C191.308 37.2051 191.846 37.4205 192.169 37.9425C192.445 38.3878 192.524 38.9039 192.478 39.4188C192.433 39.9249 192.309 40.4195 192.138 40.8968C191.981 41.3377 191.827 41.7889 191.599 42.1981C191.313 42.7113 190.938 43.1988 190.563 43.6484C190.126 44.1704 189.658 44.6563 189.147 45.1061C188.659 45.5355 188.147 45.9359 187.585 46.2658C187.028 46.5926 186.412 46.8123 185.76 46.8123H176.465H175.297L175.857 45.7856ZM167.808 27.6121C164.03 34.4922 160.206 41.3476 156.406 48.2177C152.751 54.823 149.148 61.4587 145.631 68.1394H163.675C165.599 64.5172 167.542 60.905 169.489 57.293C169.655 56.9834 170.037 56.8461 170.352 56.7419C170.656 56.6407 170.959 56.5381 171.266 56.4396L171.37 56.4063H171.478H171.628C172.543 56.4063 173.397 56.6943 174.027 57.3724C174.594 57.9827 174.969 58.6999 175.109 59.5255C175.599 62.3945 176.066 65.2691 176.559 68.1394H199.47C199.038 65.8129 198.632 63.4789 198.224 61.1478C197.772 58.5451 197.336 55.9379 196.884 53.3367L196.852 53.1499L196.917 52.975C197.007 52.7321 197.14 52.4922 197.27 52.268C197.554 51.7836 197.925 51.3758 198.393 51.0663L198.568 50.9505H198.776C199.904 50.9505 200.982 50.475 201.913 49.8718C203.172 49.0534 204.309 48.0384 205.336 46.9466C206.475 45.7392 207.531 44.461 208.485 43.1017C209.352 41.8712 210.173 40.6 210.902 39.2814C211.655 37.922 212.313 36.5121 212.839 35.0489C213.276 33.8356 213.595 32.5054 213.536 31.2082C213.489 30.1916 213.131 29.314 212.392 28.6127C211.486 27.7537 209.74 27.6121 208.561 27.6121H167.808Z" fill="black"/>
</g>
<path fill-rule="evenodd" clip-rule="evenodd" d="M295.109 87.8089C296.057 87.7598 296.987 87.7123 297.936 87.6633C297.729 88.5433 297.721 89.1426 297.902 89.4464C298.204 89.9519 298.919 90.1983 300.074 90.1983C301.021 90.1983 301.776 90.0184 302.281 89.6827C302.81 89.3312 303.134 88.9292 303.264 88.4412C303.375 88.0248 303.306 87.6748 303.038 87.3753C302.856 87.1694 302.28 86.8149 301.316 86.3384C300.35 85.8616 299.678 85.4611 299.246 85.1414C298.815 84.8215 298.541 84.4098 298.402 83.8927C298.265 83.3842 298.292 82.782 298.505 82.1009C298.879 80.901 299.626 79.9088 300.782 79.1194C301.936 78.3316 303.351 77.9371 305.005 77.9371C306.661 77.9371 307.804 78.323 308.436 79.1095C309.062 79.8871 309.23 80.9329 308.936 82.2307C307.97 82.2725 307.004 82.3141 306.074 82.3543C306.228 81.6775 306.132 81.1546 305.833 80.7975C305.528 80.4317 304.971 80.2545 304.144 80.2545C303.333 80.2545 302.715 80.4 302.281 80.6808C301.836 80.9688 301.552 81.3233 301.419 81.7566C301.293 82.1642 301.345 82.5026 301.573 82.7678C301.812 83.0415 302.4 83.4102 303.351 83.8798C304.779 84.5884 305.661 85.1572 305.987 85.5965C306.472 86.2432 306.542 87.0685 306.263 88.0883C305.921 89.3384 305.12 90.4056 303.868 91.3001C302.638 92.1802 301.125 92.6339 299.35 92.6339C298.126 92.6339 297.109 92.4306 296.35 92.0203C295.59 91.6112 295.1 91.0451 294.936 90.3177C294.773 89.5918 294.833 88.7522 295.109 87.8089ZM283.591 87.2876C284.523 87.4343 285.454 87.5842 286.403 87.7325C285.403 89.3196 284.178 90.5367 282.8 91.372C281.404 92.2175 279.92 92.6339 278.401 92.6339C276.643 92.6339 275.446 92.1182 274.765 91.0668C274.43 90.5483 274.239 89.9015 274.213 89.1426C274.187 88.3835 274.307 87.5037 274.592 86.5111C274.826 85.7016 275.126 84.9312 275.506 84.1937C275.885 83.4563 276.33 82.7461 276.867 82.0794C277.951 80.7369 279.196 79.7128 280.609 79.0028C282.022 78.2943 283.437 77.9371 284.815 77.9371C286.332 77.9371 287.414 78.3531 288.075 79.1728C288.742 80.001 288.955 81.1171 288.66 82.5403C287.694 82.631 286.73 82.7203 285.781 82.811C285.884 81.9813 285.764 81.3852 285.454 81.0106C285.143 80.6376 284.609 80.4532 283.867 80.4532C283.058 80.4532 282.233 80.7039 281.402 81.1892C280.544 81.689 279.743 82.4466 279.006 83.4966C278.276 84.5365 277.777 85.5822 277.471 86.6248C277.139 87.7628 277.168 88.6428 277.54 89.2663C277.909 89.8843 278.506 90.1983 279.316 90.1983C280.057 90.1983 280.816 89.9535 281.574 89.4623C282.332 88.9711 283.005 88.2467 283.591 87.2876ZM259.024 92.3761C260.195 90.0125 261.361 87.6461 262.54 85.2867C263.722 82.9204 264.972 80.5598 266.282 78.1948H269.195C267.869 80.5598 266.636 82.9204 265.454 85.2867C264.274 87.6461 263.109 90.0125 261.954 92.3761H259.024ZM246.006 92.3761H243.093C244.041 90.4101 245.023 88.4411 246.006 86.4767C246.988 84.5091 248.007 82.5403 249.04 80.5714H244.851C245.264 79.7791 245.678 78.9871 246.127 78.1948H257.334C256.868 78.9871 256.454 79.7791 256.057 80.5714H251.954C250.919 82.5403 249.907 84.5034 248.92 86.4767C247.94 88.4353 246.972 90.4101 246.006 92.3761ZM219.369 92.3761C220.524 90.0125 221.714 87.6504 222.903 85.2867C224.092 82.9233 225.352 80.5598 226.644 78.1948H237.162C236.712 78.9871 236.282 79.7791 235.867 80.5714H228.266C227.696 81.6429 227.128 82.7115 226.558 83.7803H233.954C233.559 84.574 233.144 85.3661 232.748 86.1582H225.334C225.007 86.7993 224.654 87.4372 224.335 88.081C224.017 88.7162 223.696 89.3599 223.386 89.9994H231.644C231.266 90.7917 230.868 91.5838 230.49 92.3761H219.369ZM200.127 92.3761C201.283 90.0125 202.486 87.6562 203.679 85.2867C204.866 82.9305 206.11 80.5598 207.385 78.1948H210.317C209.248 80.1638 208.186 82.1368 207.196 84.0986C206.204 86.0689 205.196 88.0335 204.214 89.9994H211.473C211.093 90.7917 210.697 91.5838 210.3 92.3761H200.127ZM190.127 86.0402H184.628C184.076 87.0959 183.542 88.1545 183.024 89.2088C182.507 90.2645 181.972 91.3202 181.455 92.3761H178.541C179.697 90.0125 180.9 87.6562 182.11 85.2867C183.315 82.9305 184.524 80.5598 185.784 78.1948H188.714C188.197 79.1065 187.69 80.0153 187.231 80.9285C186.776 81.8359 186.3 82.7519 185.834 83.6607H191.352C191.817 82.7519 192.3 81.8389 192.765 80.9285C193.231 80.0198 193.73 79.1065 194.232 78.1948H197.162C195.886 80.5598 194.652 82.9276 193.454 85.2867C192.255 87.6533 191.042 90.0125 189.887 92.3761H186.973C187.489 91.3202 188.017 90.2616 188.525 89.2088C189.034 88.1502 189.577 87.0959 190.127 86.0402ZM165.369 92.3761H162.438C163.404 90.4101 164.403 88.4411 165.403 86.4767C166.403 84.5091 167.439 82.5403 168.455 80.5714H164.283C164.679 79.7791 165.077 78.9871 165.507 78.1948H176.713C176.283 78.9871 175.869 79.7791 175.474 80.5714H171.369C170.352 82.5403 169.329 84.5062 168.317 86.4767C167.312 88.4382 166.318 90.4101 165.369 92.3761ZM149.696 86.8712C149.87 85.9207 149.957 84.9671 150.128 84.0181C150.3 83.0644 150.438 82.1168 150.594 81.1662C149.766 82.1168 148.986 83.0644 148.145 84.0181C147.312 84.9658 146.542 85.9207 145.697 86.8712H149.696ZM149.353 89.2475H143.698C142.8 90.2905 141.955 91.3347 141.077 92.3761H138.06C140.042 90.0125 142.104 87.6576 144.163 85.2867C146.207 82.9321 148.301 80.5598 150.37 78.1948H153.68C153.317 80.5598 152.972 82.9262 152.628 85.2867C152.283 87.6518 151.956 90.0125 151.68 92.3761H148.905C149.059 91.3347 149.181 90.2905 149.353 89.2475Z" fill="black"/>
</svg>
