<svg width="32" height="31" viewBox="0 0 32 31" fill="none" xmlns="http://www.w3.org/2000/svg">
<path fill-rule="evenodd" clip-rule="evenodd" d="M30.9029 5.3533C31.2844 6.33454 31.5508 7.46693 31.6234 9.11409C31.6961 10.7674 31.7022 11.2942 31.7022 15.503C31.7022 19.7119 31.6839 20.2386 31.6114 21.8919C31.5388 23.5391 31.2722 24.6657 30.8909 25.6528C30.0854 27.7358 28.4382 29.3831 26.3548 30.1886C25.3738 30.5701 24.2414 30.8365 22.5942 30.9091C20.941 30.9819 20.4142 30.9999 16.2054 30.9999C11.9965 30.9999 11.4695 30.9819 9.81641 30.9091C8.16903 30.8365 7.04277 30.5701 6.05563 30.1886C5.02613 29.8011 4.08747 29.1893 3.31227 28.4021C2.52501 27.6268 1.91351 26.6944 1.51988 25.6528C1.13831 24.6715 0.871713 23.5391 0.799089 21.8919C0.726467 20.2386 0.708252 19.7119 0.708252 15.503C0.708252 11.2942 0.726467 10.7674 0.80524 9.10793C0.877863 7.46078 1.14423 6.33454 1.52579 5.34738C1.91351 4.31789 2.52501 3.37922 3.31227 2.60403C4.08747 1.81061 5.01998 1.20502 6.06178 0.811391C7.04277 0.430062 8.17518 0.163462 9.82232 0.090838C11.4756 0.018215 12.0024 0 16.2112 0C20.4201 0 20.9468 0.0182149 22.6064 0.0969885C24.2535 0.169611 25.38 0.435975 26.3669 0.817542C27.3964 1.20502 28.335 1.81676 29.1103 2.60403C29.9036 3.37922 30.5093 4.31174 30.9029 5.3533ZM28.2989 24.6474C28.5109 24.1023 28.7652 23.2848 28.8318 21.7708C28.9044 20.1357 28.9226 19.6512 28.9226 15.515C28.9226 11.3788 28.9044 10.8884 28.8318 9.25335C28.7652 7.74529 28.5109 6.92184 28.2989 6.37681C28.0505 5.70451 27.6568 5.09892 27.1421 4.59623C26.6456 4.08149 26.0338 3.68786 25.3618 3.43971C24.8167 3.22775 23.9992 2.97346 22.4852 2.90675C20.8561 2.83413 20.3657 2.8159 16.2234 2.8159C12.0874 2.8159 11.5968 2.83413 9.96168 2.90675C8.45386 2.97346 7.63017 3.22775 7.08515 3.43971C6.41285 3.68786 5.80726 4.08149 5.30482 4.59623C4.78392 5.09301 4.39028 5.70451 4.14191 6.37681C3.92994 6.92184 3.67565 7.73937 3.60917 9.25335C3.53631 10.8823 3.51834 11.3788 3.51834 15.515C3.51834 19.6512 3.53631 20.1418 3.60917 21.7769C3.67565 23.2848 3.92994 24.1085 4.14191 24.6535C4.39028 25.3255 4.78392 25.9312 5.29867 26.4338C5.7952 26.9485 6.40693 27.3422 7.07899 27.5906C7.62402 27.8025 8.44157 28.0569 9.95553 28.1233C11.5847 28.1961 12.0812 28.2142 16.2174 28.2142C20.3536 28.2142 20.844 28.1961 22.479 28.1233C23.9872 28.0569 24.8106 27.8025 25.3556 27.5906C26.7061 27.0696 27.778 25.9978 28.2989 24.6474Z" fill="#2C3F58"/>
<path fill-rule="evenodd" clip-rule="evenodd" d="M8.24792 15.5029C8.24792 11.1062 11.815 7.53937 16.2113 7.53937C20.6081 7.53937 24.1749 11.1062 24.1749 15.5029C24.1749 19.8994 20.6081 23.4663 16.2113 23.4663C11.815 23.4663 8.24792 19.8994 8.24792 15.5029ZM11.0457 15.5029C11.0457 18.3553 13.3592 20.6685 16.2114 20.6685C19.0639 20.6685 21.3771 18.3553 21.3771 15.5029C21.3771 12.6505 19.0639 10.3372 16.2114 10.3372C13.3592 10.3372 11.0457 12.6505 11.0457 15.5029Z" fill="#2C3F58"/>
<path d="M26.3491 7.22477C26.3491 8.25143 25.5166 9.08388 24.4897 9.08388C23.4631 9.08388 22.6306 8.25143 22.6306 7.22477C22.6306 6.19787 23.4631 5.36566 24.4897 5.36566C25.5166 5.36566 26.3491 6.19787 26.3491 7.22477Z" fill="#2C3F58"/>
</svg>
